<svg width="33" height="33" viewBox="0 0 33 33" fill="none" xmlns="http://www.w3.org/2000/svg">
    <g id="menu 1">
    <g id="Group">
    <g id="Menu_1_">
    <path id="Vector" d="M1.03122 10.3125H31.9687C32.538 10.3125 32.9999 9.85046 32.9999 9.28127C32.9999 8.712 32.5379 8.25005 31.9687 8.25005H1.03122C0.46195 8.25005 0 8.71208 0 9.28127C0 9.85046 0.462036 10.3125 1.03122 10.3125Z" fill="white"/>
    <path id="Vector_2" d="M31.9687 15.4688H1.03122C0.46195 15.4688 0 15.9308 0 16.5C0 17.0692 0.462036 17.5312 1.03122 17.5312H31.9687C32.538 17.5312 32.9999 17.0692 32.9999 16.5C32.9999 15.9308 32.538 15.4688 31.9687 15.4688Z" fill="white"/>
    <path id="Vector_3" d="M31.9687 22.6875H11.3437C10.7744 22.6875 10.3125 23.1496 10.3125 23.7187C10.3125 24.288 10.7745 24.75 11.3437 24.75H31.9687C32.538 24.75 32.9999 24.2879 32.9999 23.7187C33 23.1495 32.538 22.6875 31.9687 22.6875Z" fill="white"/>
    </g>
    </g>
    </g>
</svg>
