<svg width="31" height="31" viewBox="0 0 31 31" fill="none" xmlns="http://www.w3.org/2000/svg">
<g id="magnifying-glass 1" clip-path="url(#clip0)">
    <g id="Group">
        <path id="Vector" d="M20.194 3.46C15.581 -1.153 8.07301 -1.153 3.46001 3.46C-1.15199 8.074 -1.15199 15.581 3.46001 20.195C7.56801 24.302 13.966 24.742 18.576 21.535C18.673 21.994 18.895 22.432 19.252 22.789L25.97 29.507C26.949 30.484 28.531 30.484 29.505 29.507C30.483 28.529 30.483 26.947 29.505 25.972L22.787 19.252C22.432 18.898 21.993 18.675 21.534 18.578C24.743 13.967 24.303 7.57 20.194 3.46ZM18.073 18.074C14.629 21.518 9.02401 21.518 5.58101 18.074C2.13901 14.63 2.13901 9.026 5.58101 5.582C9.02401 2.139 14.629 2.139 18.073 5.582C21.517 9.026 21.517 14.63 18.073 18.074Z" fill="black"/>
    </g>
</g>
    <defs>
        <clipPath id="clip0">
            <rect width="30.239" height="30.239" fill="white"/>
        </clipPath>
    </defs>
</svg>
